<?xml version="1.0" encoding="UTF-8"?>
<svg width="16px" height="16px" viewBox="0 0 16 16" version="1.1" xmlns="http://www.w3.org/2000/svg" xmlns:xlink="http://www.w3.org/1999/xlink">
    <!-- Generator: Sketch 58 (84663) - https://sketch.com -->
    <title>清除所有</title>
    <desc>Created with Sketch.</desc>
    <g id="清除所有" stroke="none" stroke-width="1" fill="none" fill-rule="evenodd">
        <g id="编组" transform="translate(9.080829, 6.883888) rotate(-315.000000) translate(-9.080829, -6.883888) translate(3.580829, -0.616112)" fill="#CCCCCC">
            <path d="M9.61294623,9 L10.4517854,13.6838157 C10.5204082,14.207767 10.1924965,14.774074 9.72856044,14.9486978 C9.63887475,14.9826771 9.5475527,15 9.4579632,15 L8.61264106,15 L8.61264106,14.5 C8.61264106,14.2238576 8.38878343,14 8.11264106,14 C7.83649868,14 7.61264106,14.2238576 7.61264106,14.5 L7.61264106,15 L6.61264106,15 L6.61264106,12.5 C6.61264106,12.2238576 6.38878343,12 6.11264106,12 C5.83649868,12 5.61264106,12.2238576 5.61264106,12.5 L5.61264106,15 L3.61264106,15 L3.61264106,13.5 C3.61264106,13.2238576 3.38878343,13 3.11264106,13 C2.83649868,13 2.61264106,13.2238576 2.61264106,13.5 L2.61264106,15 L1.76731892,15 C1.30690747,15 0.864000505,14.5522847 0.778058533,14 C0.761335451,13.8925333 0.759746109,13.7857691 0.773496678,13.6838157 L1.61233588,9 L9.61294623,9 Z M5.61264106,0 C6.16492581,0 6.61264106,0.44771525 6.61264106,1 L6.61264106,5 C8.26949531,5 9.61264106,6.34314575 9.61264106,8 L1.61264106,8 C1.61264106,6.34314575 2.95578681,5 4.61264106,5 L4.61264106,1 C4.61264106,0.44771525 5.06035631,0 5.61264106,0 Z" id="Combined-Shape"></path>
        </g>
    </g>
</svg>