<?xml version="1.0" encoding="UTF-8"?>
<svg width="12px" height="12px" viewBox="0 0 12 12" version="1.1" xmlns="http://www.w3.org/2000/svg" xmlns:xlink="http://www.w3.org/1999/xlink">
    <!-- Generator: Sketch 58 (84663) - https://sketch.com -->
    <title>筛选</title>
    <desc>Created with Sketch.</desc>
    <g id="筛选" stroke="none" stroke-width="1" fill="none" fill-rule="evenodd">
        <g id="Icon/Filter" transform="translate(1.000000, 1.000000)" fill="#CCCCCC">
            <g id="348-filter" transform="translate(0.625000, 0.625000)">
                <path d="M4.375,0 C1.95890625,0 0,0.611953125 0,1.3671875 L0,2.1875 L3.28125,5.46875 L3.28125,8.203125 C3.28125,8.505 3.77070312,8.75 4.375,8.75 C4.97929688,8.75 5.46875,8.505 5.46875,8.203125 L5.46875,5.46875 L8.75,2.1875 L8.75,1.3671875 C8.75,0.611953125 6.79109375,0 4.375,0 Z M0.806640625,1.18617187 C1.01117188,1.0696875 1.29882812,0.958671875 1.63789062,0.865703125 C2.38929687,0.660078125 3.36164062,0.546875 4.375,0.546875 C5.38835937,0.546875 6.36070312,0.660078125 7.11210937,0.865703125 C7.45117187,0.958671875 7.73882812,1.06914062 7.94335937,1.18617187 C8.0784375,1.26328125 8.15117187,1.32835938 8.18507812,1.3671875 C8.15117187,1.40601562 8.0784375,1.47109375 7.94335937,1.54820312 C7.73882812,1.6646875 7.45117187,1.77570312 7.11210937,1.86867187 C6.36070312,2.07429687 5.38835937,2.1875 4.375,2.1875 C3.36164062,2.1875 2.38929687,2.07429687 1.63789062,1.86867187 C1.29882812,1.77570312 1.01117187,1.66523438 0.806640625,1.54820312 C0.6715625,1.47109375 0.598828125,1.40601562 0.564921875,1.3671875 C0.598828125,1.32835937 0.6715625,1.26328125 0.806640625,1.18617187 Z" id="Shape"></path>
            </g>
        </g>
    </g>
</svg>