<?xml version="1.0" encoding="UTF-8"?>
<svg width="12px" height="12px" viewBox="0 0 12 12" version="1.1" xmlns="http://www.w3.org/2000/svg" xmlns:xlink="http://www.w3.org/1999/xlink">
    <!-- Generator: Sketch 58 (84663) - https://sketch.com -->
    <title>搜索</title>
    <desc>Created with Sketch.</desc>
    <g id="搜索" stroke="none" stroke-width="1" fill="none" fill-rule="evenodd">
        <g id="search" transform="translate(1.000000, 1.000000)" fill="#C4C4C4" fill-rule="nonzero">
            <g id="操作-搜索">
                <g>
                    <path d="M7.70009433,7.18561465 L9.89336412,9.3785206 C9.98533206,9.47048854 10.0212496,9.60453473 9.98758703,9.73016527 C9.95392443,9.8557958 9.8557958,9.95392443 9.73016527,9.98758703 C9.60453473,10.0212496 9.47048854,9.98533206 9.3785206,9.89336412 L7.18561465,7.70009433 C6.39814964,8.36798775 5.39872425,8.73388914 4.36616415,8.73232831 C1.95495,8.73232831 0,6.77737831 0,4.36616415 C0,1.95495 1.95495,0 4.36616415,0 C6.77737831,0 8.73232831,1.95495 8.73232831,4.36616415 C8.73232831,5.44096823 8.34410354,6.42481055 7.70009433,7.18561465 Z M4.36616415,8.00463428 C6.3756912,8.00463428 8.00463428,6.3756912 8.00463428,4.36616415 C8.00463428,2.3566371 6.3756912,0.727694025 4.36616415,0.727694025 C2.3566371,0.727694025 0.727694025,2.3566371 0.727694025,4.36616415 C0.727694025,6.3756912 2.3566371,8.00463428 4.36616415,8.00463428 Z" id="形状"></path>
                </g>
            </g>
        </g>
    </g>
</svg>